<svg width="32" height="32" xmlns="http://www.w3.org/2000/svg">
 <g>
  <title>background</title>
  <rect x="-1" y="-1" width="11.58081" height="11.58081" id="canvas_background" fill="none"/>
 </g>

 <g>
  <title>Layer 1</title>
  <g id="svg_1" stroke="null">
   <g id="svg_2" stroke="null">
    <path d="m15.999999,0.839105l0,0c-6.180963,0 -11.172127,4.895844 -11.172127,10.958763c0,2.113948 0.688437,4.132474 1.646261,5.791262l7.280964,12.360648c0.456463,0.807411 1.376873,1.211116 2.244902,1.211116c0.868103,0 1.74354,-0.403705 2.244902,-1.211116l7.280964,-12.353308c0.965308,-1.658935 1.646261,-3.640761 1.646261,-5.791409c0,-6.062773 -4.991165,-10.965957 -11.172127,-10.965957l0,0.000001zm0,14.195746c-2.244902,0 -4.078238,-1.798324 -4.078238,-4.000352s1.833336,-4.000352 4.078238,-4.000352s4.078238,1.798324 4.078238,4.000352c0,2.209369 -1.833336,4.000352 -4.078238,4.000352z" id="svg_3" stroke="null" stroke-width="0" fill="#7ea8d3"/>
   </g>
  </g>
  <g id="svg_4"/>
  <g id="svg_5"/>
  <g id="svg_6"/>
  <g id="svg_7"/>
  <g id="svg_8"/>
  <g id="svg_9"/>
  <g id="svg_10"/>
  <g id="svg_11"/>
  <g id="svg_12"/>
  <g id="svg_13"/>
  <g id="svg_14"/>
  <g id="svg_15"/>
  <g id="svg_16"/>
  <g id="svg_17"/>
  <g id="svg_18"/>
 </g>
</svg>