<svg width="32" height="32" xmlns="http://www.w3.org/2000/svg">
 <!-- Created with Method Draw - http://github.com/duopixel/Method-Draw/ -->

 <g>
  <title>background</title>
  <rect fill="none" id="canvas_background" height="34" width="34" y="-1" x="-1"/>
 </g>
 <g>
  <title>Layer 1</title>
  <g fill="none" id="svg_52">
   <g stroke="null" id="svg_31" transform="matrix(0.0743214409837727,0,0,0.06990990817438349,14.843705553664615,20.778238616609386) ">
    <g stroke="null" id="svg_32">
     <path fill="#7ea8d3" d="m154.822014,-61.180496c0,-8.704 -6.656,-15.36 -15.36,-15.36s-15.36,6.656 -15.36,15.36c0,59.904 -48.64,108.544 -108.544,108.544c-59.904,0 -108.544,-48.64 -108.544,-108.544c0,-8.704 -6.656,-15.36 -15.36,-15.36c-8.704,0 -15.36,6.656 -15.36,15.36c0,71.168 53.248,131.072 123.904,138.752l0,40.96l-55.808,0c-8.704,0 -15.36,6.656 -15.36,15.36s6.656,15.36 15.36,15.36l142.336,0c8.704,0 15.36,-6.656 15.36,-15.36s-6.656,-15.36 -15.36,-15.36l-55.808,0l0,-40.96c70.656,-7.68 123.904,-67.584 123.904,-138.752z" id="svg_33"/>
    </g>
   </g>
   <g stroke="null" id="svg_34" transform="matrix(0.0743214409837727,0,0,0.06990990817438349,14.843705553664615,20.778238616609386) ">
    <g stroke="null" id="svg_35">
     <path fill="#7ea8d3" d="m15.558014,-285.948496c-47.104,0 -85.504,38.4 -85.504,85.504l0,138.752c0,47.616 38.4,85.504 85.504,86.016c47.104,0 85.504,-38.4 85.504,-85.504l0,-139.264c0,-47.104 -38.4,-85.504 -85.504,-85.504z" id="svg_36"/>
    </g>
   </g>
   <g stroke="null" id="svg_37" transform="matrix(0.0743214409837727,0,0,0.06990990817438349,14.843705553664615,20.778238616609386) "/>
   <g stroke="null" id="svg_38" transform="matrix(0.0743214409837727,0,0,0.06990990817438349,14.843705553664615,20.778238616609386) "/>
   <g stroke="null" id="svg_39" transform="matrix(0.0743214409837727,0,0,0.06990990817438349,14.843705553664615,20.778238616609386) "/>
   <g stroke="null" id="svg_40" transform="matrix(0.0743214409837727,0,0,0.06990990817438349,14.843705553664615,20.778238616609386) "/>
   <g stroke="null" id="svg_41" transform="matrix(0.0743214409837727,0,0,0.06990990817438349,14.843705553664615,20.778238616609386) "/>
   <g stroke="null" id="svg_42" transform="matrix(0.0743214409837727,0,0,0.06990990817438349,14.843705553664615,20.778238616609386) "/>
   <g stroke="null" id="svg_43" transform="matrix(0.0743214409837727,0,0,0.06990990817438349,14.843705553664615,20.778238616609386) "/>
   <g stroke="null" id="svg_44" transform="matrix(0.0743214409837727,0,0,0.06990990817438349,14.843705553664615,20.778238616609386) "/>
   <g stroke="null" id="svg_45" transform="matrix(0.0743214409837727,0,0,0.06990990817438349,14.843705553664615,20.778238616609386) "/>
   <g stroke="null" id="svg_46" transform="matrix(0.0743214409837727,0,0,0.06990990817438349,14.843705553664615,20.778238616609386) "/>
   <g stroke="null" id="svg_47" transform="matrix(0.0743214409837727,0,0,0.06990990817438349,14.843705553664615,20.778238616609386) "/>
   <g stroke="null" id="svg_48" transform="matrix(0.0743214409837727,0,0,0.06990990817438349,14.843705553664615,20.778238616609386) "/>
   <g stroke="null" id="svg_49" transform="matrix(0.0743214409837727,0,0,0.06990990817438349,14.843705553664615,20.778238616609386) "/>
   <g stroke="null" id="svg_50" transform="matrix(0.0743214409837727,0,0,0.06990990817438349,14.843705553664615,20.778238616609386) "/>
   <g stroke="null" id="svg_51" transform="matrix(0.0743214409837727,0,0,0.06990990817438349,14.843705553664615,20.778238616609386) "/>
  </g>
 </g>
</svg>